PathFileType	4	(X/Y/Z)	C:\Users\dbl\Desktop\LZH\BX\Trimmed_Trimmed_Trimmed_Trimmed_bx_n_5_1801.trc
DataRate	CameraRate	NumFrames	NumMarkers	Units	OrigDataRate	OrigDataStartFrame	OrigNumFrames
50.00	50.00	       5	43	mm	50.00	37	       290
Frame#	Time	Top.Head			R.Acromium			L.Acromium			Sternum			R.ASIS			L.ASIS			V.Sacral			R.Thigh.Upper			R.Thigh.Front			R.Thigh.Rear			R.Knee.Lat			R.Knee.Med			R.Shank.Upper			R.Shank.Front			R.Shank.Rear			R.Ankle.Lat			R.Midfoot.Lat			R.Toe.Lat			R.Toe.Tip			R.Toe.Med			R.Ankle.Med			R.Midfoot.Sup			R.Heel			L.Thigh.Upper			L.Thigh.Front			L.Thigh.Rear			L.Knee.Lat			L.Knee.Med			L.Shank.Upper			L.Shank.Front			L.Shank.Rear			L.Ankle.Lat			L.Midfoot.Lat			L.Toe.Lat			L.Toe.Tip			L.Toe.Med			L.Ankle.Med			L.Midfoot.Sup			L.Heel			origin1 front left			origin2 front right			origin 3 back right			origin 4 back leftt			
		X1	Y1	Z1	X2	Y2	Z2	X3	Y3	Z3	X4	Y4	Z4	X5	Y5	Z5	X6	Y6	Z6	X7	Y7	Z7	X8	Y8	Z8	X9	Y9	Z9	X10	Y10	Z10	X11	Y11	Z11	X12	Y12	Z12	X13	Y13	Z13	X14	Y14	Z14	X15	Y15	Z15	X16	Y16	Z16	X17	Y17	Z17	X18	Y18	Z18	X19	Y19	Z19	X20	Y20	Z20	X21	Y21	Z21	X22	Y22	Z22	X23	Y23	Z23	X24	Y24	Z24	X25	Y25	Z25	X26	Y26	Z26	X27	Y27	Z27	X28	Y28	Z28	X29	Y29	Z29	X30	Y30	Z30	X31	Y31	Z31	X32	Y32	Z32	X33	Y33	Z33	X34	Y34	Z34	X35	Y35	Z35	X36	Y36	Z36	X37	Y37	Z37	X38	Y38	Z38	X39	Y39	Z39	X40	Y40	Z40	X41	Y41	Z41	X42	Y42	Z42	X43	Y43	Z43	

37	0.720	-626.48004	271.59348	1836.55493	-634.09576	88.45597	1542.68420	-635.74396	445.26379	1528.32080	-529.18719	262.95941	1354.62952	-537.08325	131.22684	1033.75122	-511.50894	357.04315	1036.47644	-726.59607	257.63553	1054.61023	-612.18042	81.46188	832.05811	-522.90979	144.03918	809.71759	-613.27588	97.55046	721.07343	-652.99811	122.15456	603.92072	-627.74432	229.46019	562.58911	-682.63745	123.47923	540.12231	-604.20911	170.15598	523.81049	-692.64264	116.39247	489.33737	-686.64600	147.95970	212.74771	-609.33624	88.70799	164.75830	-561.72180	68.92536	162.55327	-483.64383	112.75452	158.40030	-530.69989	163.56058	165.09540	-637.70410	224.72470	220.09302	-596.08643	200.30022	170.98479	-721.49066	213.94626	170.58655	-600.08295	438.45255	851.96539	-519.91589	383.54810	813.02649	-626.21619	423.65610	739.46338	-646.37354	402.18689	606.04120	-634.30133	292.75433	570.32849	-662.90729	404.65158	560.72028	-605.27167	348.75323	535.82776	-717.93835	406.04269	497.56473	-678.12524	399.11414	213.94713	-582.46399	449.82571	164.79785	-543.43018	460.11948	157.27562	-479.86365	410.00711	165.75693	-523.87561	369.18448	177.49521	-643.35022	308.69415	208.79715	-593.94427	328.46588	169.77934	-731.95728	327.10544	161.52867	-443.61813	448.58145	147.25047	-450.43604	74.96807	143.84485	-806.36157	82.46182	141.73306	-799.68634	456.48123	144.97498	
38	0.740	-626.66968	271.48599	1836.52808	-634.25153	88.37700	1542.64636	-635.82178	445.23907	1528.32043	-529.25891	262.90793	1354.60693	-537.15607	131.17633	1033.78809	-511.54807	356.99643	1036.47742	-726.65509	257.59882	1054.55334	-612.19299	81.40661	832.08795	-522.92358	144.03880	809.71802	-613.30005	97.53703	721.04926	-652.99890	122.17068	603.89929	-627.75684	229.41629	562.59204	-682.63763	123.47922	540.12225	-604.20129	170.15248	523.82288	-692.66302	116.36971	489.35358	-686.67096	147.96194	212.76883	-609.34491	88.71062	164.74966	-561.71893	68.89686	162.58270	-483.67072	112.79447	158.39159	-530.70807	163.57111	165.09541	-637.71661	224.75835	220.04288	-596.06262	200.28572	171.00351	-721.48877	213.96471	170.61253	-600.11273	438.43353	851.99689	-519.93597	383.50766	813.02753	-626.20892	423.65756	739.46240	-646.40375	402.14154	606.01752	-634.32373	292.74625	570.32764	-662.89355	404.64383	560.70544	-605.25513	348.74942	535.82251	-717.93945	406.02991	497.55942	-678.14380	399.09897	213.95683	-582.46307	449.88916	164.80025	-543.41925	460.15125	157.24098	-479.87836	410.02026	165.74504	-523.86749	369.18698	177.49980	-643.37158	308.68152	208.81551	-593.94128	328.44608	169.75986	-731.99915	327.18762	161.57066	-443.63336	448.62100	147.28342	-450.44614	74.97573	143.84129	-806.33539	82.45444	141.72276	-799.68958	456.46686	144.99640	
39	0.760	-626.84875	271.37601	1836.50537	-634.39551	88.26809	1542.61438	-635.84448	445.20233	1528.33020	-529.35492	262.84979	1354.58191	-537.21301	131.16173	1033.81116	-511.57587	356.96912	1036.48755	-726.72522	257.58008	1054.52344	-612.21082	81.35319	832.12097	-522.93420	144.05179	809.72943	-613.31055	97.51123	721.03082	-652.98920	122.19420	603.87512	-627.77930	229.38615	562.57886	-682.63776	123.47921	540.12213	-604.16388	170.16727	523.84790	-692.66321	116.34013	489.35889	-686.68921	147.94643	212.80702	-609.36011	88.71748	164.72342	-561.71960	68.86060	162.61090	-483.68173	112.82641	158.39166	-530.71704	163.58446	165.09297	-637.72681	224.79597	219.97885	-596.04425	200.25281	170.99995	-721.49084	214.01355	170.63670	-600.13531	438.40561	851.98138	-519.94116	383.47827	813.01715	-626.20746	423.66385	739.45032	-646.42987	402.11258	606.01013	-634.38165	292.73212	570.28778	-662.86816	404.62775	560.68738	-605.23761	348.75470	535.80298	-717.94043	406.02579	497.56067	-678.15735	399.10583	213.96640	-582.44684	449.94131	164.84636	-543.42554	460.18085	157.20586	-479.89905	410.02750	165.74591	-523.85974	369.17340	177.47676	-643.38049	308.72263	208.78883	-593.91870	328.44083	169.78040	-732.04041	327.26321	161.62614	-443.64337	448.66400	147.32016	-450.45724	74.98325	143.83002	-806.31213	82.43256	141.67633	-799.66718	456.47617	145.01750	
40	0.780	-627.01508	271.27576	1836.49536	-634.52161	88.14390	1542.58887	-635.84125	445.15582	1528.34839	-529.47961	262.78577	1354.56079	-537.25903	131.17090	1033.81567	-511.60406	356.94687	1036.53052	-726.80634	257.57877	1054.51770	-612.24878	81.30185	832.14551	-522.95087	144.07466	809.75189	-613.31720	97.49207	721.02002	-652.97388	122.22160	603.85095	-627.80933	229.38255	562.54785	-682.63776	123.47922	540.12207	-604.12079	170.18059	523.85626	-692.65521	116.29539	489.36932	-686.70258	147.93315	212.82919	-609.37439	88.73367	164.69257	-561.71851	68.83875	162.61252	-483.68442	112.82522	158.41302	-530.72266	163.58759	165.09174	-637.72687	224.81288	219.94098	-596.05621	200.23442	170.96936	-721.48242	214.08913	170.65167	-600.16437	438.38083	851.94818	-519.93146	383.47736	813.01276	-626.21222	423.66486	739.44031	-646.44946	402.12827	606.02020	-634.47339	292.70367	570.22070	-662.85498	404.61343	560.66541	-605.23077	348.76071	535.79407	-717.93695	406.02975	497.57019	-678.15747	399.12668	213.96483	-582.42084	449.92990	164.90337	-543.42926	460.20081	157.20181	-479.90948	410.03384	165.76401	-523.84637	369.15961	177.45871	-643.38806	308.79056	208.71700	-593.88434	328.44788	169.82451	-732.04633	327.27008	161.64752	-443.64261	448.68439	147.33386	-450.46609	74.98677	143.82031	-806.32288	82.40553	141.62436	-799.63934	456.49640	145.02675	
41	0.800	-627.15991	271.18198	1836.49548	-634.62500	88.03996	1542.56348	-635.83813	445.10706	1528.36694	-529.61456	262.72562	1354.55005	-537.29462	131.19235	1033.79541	-511.64935	356.93164	1036.60376	-726.88898	257.58762	1054.52295	-612.31525	81.26211	832.15625	-522.96619	144.09608	809.77563	-613.31842	97.49694	721.01807	-652.96399	122.23433	603.84100	-627.83990	229.40416	562.51062	-682.63782	123.47924	540.12195	-604.10950	170.16893	523.84381	-692.65918	116.25354	489.40417	-686.72400	147.93414	212.82117	-609.38605	88.74928	164.66882	-561.70740	68.83784	162.59396	-483.67792	112.79528	158.45222	-530.71472	163.56668	165.09807	-637.72528	224.80721	219.95192	-596.07898	200.24391	170.94788	-721.46326	214.16901	170.64616	-600.20105	438.37433	851.93066	-519.92468	383.49173	813.02734	-626.21747	423.65991	739.43860	-646.44727	402.17102	606.03143	-634.56769	292.67999	570.14825	-662.86023	404.60846	560.63519	-605.23639	348.76471	535.80206	-717.93903	406.03735	497.58072	-678.14227	399.14581	213.95587	-582.41266	449.83978	164.91934	-543.41650	460.19461	157.21906	-479.90250	410.03830	165.78224	-523.83344	369.15637	177.46776	-643.40509	308.82236	208.63962	-593.85089	328.46558	169.84920	-732.02905	327.20551	161.60019	-443.62885	448.68649	147.31442	-450.47104	74.98709	143.81534	-806.36462	82.38206	141.59268	-799.62280	456.50525	145.02187	
